HIERARCHY
ROOT cyl_med
{
	OFFSET 0.000000 0.000000 0.000000
	CHANNELS 6 Xposition Yposition Zposition Yrotation Xrotation Zrotation
	End Site
	{
		OFFSET 0.000000 0.000000 0.000000
	}
}
MOTION
Frames: 137
Frame Time: 0.008333334
-3.041656 1.060022 2.080701 42.410740 -0.983063 0.317292 
-3.041949 1.060147 2.080709 42.405970 -0.973236 0.351226 
-3.041897 1.059970 2.080586 42.445070 -0.981567 0.359491 
-3.041764 1.059860 2.080564 42.357290 -0.964813 0.271241 
-3.041801 1.059827 2.080652 42.433530 -0.957153 0.293862 
-3.041840 1.059950 2.080590 42.386940 -1.011658 0.287941 
-3.041882 1.060165 2.080472 42.449630 -0.975128 0.323561 
-3.041548 1.059929 2.080712 42.358270 -1.019714 0.369218 
-3.041733 1.059767 2.080683 42.417590 -0.979981 0.315876 
-3.041830 1.059971 2.080717 42.384610 -0.972138 0.294599 
-3.042025 1.060036 2.080631 42.429280 -1.009460 0.308427 
-3.041854 1.059904 2.080708 42.384010 -1.015137 0.297797 
-3.041995 1.060024 2.080601 42.419340 -0.944733 0.327976 
-3.042097 1.060055 2.080772 42.383320 -1.021820 0.335953 
-3.041818 1.059932 2.080639 42.418500 -1.011047 0.312754 
-3.042193 1.059779 2.080901 42.376830 -0.990356 0.346636 
-3.041802 1.060098 2.080647 42.421760 -0.994202 0.310824 
-3.041922 1.060055 2.080731 42.396200 -0.988434 0.305380 
-3.041584 1.059880 2.080435 42.427160 -0.982788 0.294809 
-3.042389 1.060087 2.080563 42.378670 -0.967316 0.342880 
-3.042238 1.059798 2.080488 42.359620 -0.996368 0.279444 
-3.042479 1.060030 2.080811 42.372240 -1.021210 0.333002 
-3.042448 1.059948 2.080827 42.387650 -1.014099 0.324247 
-3.042801 1.059855 2.080813 42.374560 -1.005981 0.364961 
-3.042150 1.059920 2.080699 42.321280 -1.010315 0.361930 
-3.042699 1.059941 2.080667 42.392360 -0.951874 0.374592 
-3.042335 1.059999 2.080452 42.385200 -0.994721 0.302966 
-3.042361 1.059949 2.080597 42.401970 -1.005127 0.326295 
-3.042730 1.059780 2.080763 42.324970 -0.954041 0.329233 
-3.042623 1.059852 2.080791 42.380590 -0.992188 0.327182 
-3.042665 1.059704 2.080569 42.375180 -1.017120 0.330053 
-3.042667 1.059972 2.080393 42.376480 -1.000763 0.320681 
-3.042754 1.059874 2.080472 42.372580 -0.988159 0.318224 
-3.042703 1.059890 2.080649 42.370540 -0.983124 0.322924 
-3.042660 1.059706 2.080785 42.377790 -1.008972 0.340868 
-3.043252 1.059774 2.080732 42.406930 -0.998138 0.391146 
-3.042873 1.059852 2.080590 42.382130 -0.967865 0.293527 
-3.043016 1.059893 2.080768 42.338550 -0.975800 0.324193 
-3.043014 1.059626 2.080978 42.336320 -0.965057 0.317546 
-3.042972 1.059747 2.081010 42.382970 -0.998718 0.359558 
-3.042848 1.059884 2.080795 42.359420 -0.985596 0.297338 
-3.042737 1.059739 2.080879 42.376900 -0.973755 0.324709 
-3.042757 1.059817 2.080824 42.376530 -1.010620 0.331944 
-3.042898 1.059957 2.080705 42.361270 -1.015015 0.324145 
-3.042913 1.059813 2.080778 42.384110 -0.998718 0.318944 
-3.043111 1.059772 2.080671 42.402530 -0.997345 0.309187 
-3.043391 1.059840 2.080940 42.387140 -1.008636 0.367264 
-3.043290 1.059886 2.080667 42.377460 -0.986603 0.314373 
-3.043221 1.059834 2.080669 42.384910 -1.005493 0.361711 
-3.042993 1.059569 2.080466 42.358170 -0.951843 0.297555 
-3.043220 1.059596 2.080634 42.364520 -0.985779 0.316214 
-3.043461 1.059997 2.080512 42.359920 -1.009430 0.322659 
-3.043687 1.059917 2.080613 42.391420 -1.016571 0.341028 
-3.043791 1.059752 2.080672 42.410840 -1.047424 0.344761 
-3.044080 1.059816 2.080888 42.358610 -1.011658 0.352493 
-3.044047 1.059824 2.080847 42.394120 -1.025177 0.343661 
-3.043623 1.059665 2.080644 42.368400 -1.016663 0.339916 
-3.044032 1.059969 2.080601 42.387340 -1.013916 0.328331 
-3.044191 1.059785 2.080672 42.365230 -0.996429 0.316847 
-3.044247 1.059535 2.080759 42.325740 -0.977692 0.339534 
-3.043956 1.059735 2.080637 42.361320 -0.993622 0.334704 
-3.043823 1.059841 2.080434 42.373070 -0.987183 0.307217 
-3.043357 1.059832 2.080324 42.365610 -0.990387 0.302156 
-3.043270 1.059712 2.080362 42.346420 -0.988892 0.303147 
-3.043275 1.059864 2.080503 42.364080 -1.003754 0.322510 
-3.043459 1.059779 2.080435 42.398150 -0.948456 0.375858 
-3.042691 1.059896 2.080318 42.374750 -1.003510 0.303096 
-3.042464 1.059637 2.080381 42.363830 -0.973663 0.292822 
-3.042576 1.059890 2.080268 42.364660 -0.980377 0.296765 
-3.042430 1.059786 2.080469 42.353930 -1.003876 0.304747 
-3.042290 1.059984 2.080307 42.385110 -1.029175 0.310726 
-3.042468 1.059831 2.080405 42.385540 -1.017853 0.344102 
-3.042400 1.059862 2.080037 42.396890 -0.950836 0.332120 
-3.042459 1.059800 2.080381 42.352630 -0.995148 0.317258 
-3.042334 1.059875 2.080215 42.375610 -0.997376 0.300840 
-3.042277 1.059799 2.080168 42.377520 -0.979614 0.278417 
-3.042501 1.059977 2.080166 42.377380 -1.000031 0.305938 
-3.042327 1.059895 2.079923 42.401440 -1.006348 0.314174 
-3.042386 1.059931 2.079996 42.374900 -1.000793 0.289644 
-3.042652 1.059954 2.080053 42.363340 -0.987946 0.314737 
-3.042409 1.059767 2.080082 42.373250 -0.999939 0.298338 
-3.042394 1.059636 2.079991 42.397180 -0.976471 0.322799 
-3.042692 1.060117 2.079801 42.450550 -1.010071 0.370876 
-3.042691 1.059775 2.080136 42.363500 -1.010162 0.340570 
-3.042618 1.059740 2.080037 42.381890 -1.012543 0.339684 
-3.042385 1.059938 2.080100 42.377370 -1.010040 0.314557 
-3.042355 1.059914 2.079982 42.406930 -0.956543 0.344646 
-3.042300 1.060201 2.079761 42.446080 -0.995178 0.337531 
-3.041922 1.059938 2.079807 42.430140 -1.010590 0.299388 
-3.042305 1.059814 2.079829 42.417890 -1.036530 0.322911 
-3.042427 1.059972 2.079971 42.410870 -0.980957 0.329624 
-3.042054 1.059844 2.079761 42.407180 -1.018921 0.302486 
-3.042304 1.060036 2.079676 42.417890 -1.005005 0.326298 
-3.042251 1.059862 2.079825 42.369750 -1.011475 0.286424 
-3.042304 1.060018 2.079707 42.456700 -0.989105 0.342368 
-3.042126 1.059970 2.079612 42.408170 -1.017426 0.295533 
-3.042367 1.059900 2.079935 42.432530 -1.017578 0.317929 
-3.042222 1.059938 2.079798 42.403400 -1.015503 0.306512 
-3.042205 1.059788 2.079837 42.425000 -1.010101 0.317907 
-3.042516 1.059916 2.079711 42.405640 -0.982422 0.348518 
-3.042336 1.059904 2.079752 42.404940 -1.004578 0.309056 
-3.042347 1.059918 2.079736 42.394500 -1.011414 0.307773 
-3.042541 1.059851 2.079732 42.416980 -0.994659 0.315963 
-3.042503 1.059736 2.079770 42.378450 -0.967987 0.295294 
-3.042720 1.059798 2.079950 42.343160 -0.983734 0.308655 
-3.042508 1.059733 2.079901 42.370050 -0.983643 0.289564 
-3.042707 1.059993 2.079996 42.380550 -1.002594 0.310225 
-3.042701 1.059870 2.079857 42.391770 -1.029144 0.307659 
-3.042743 1.060028 2.079786 42.417920 -1.019165 0.309220 
-3.042952 1.059995 2.079876 42.417170 -0.955689 0.341859 
-3.042951 1.060004 2.079829 42.383870 -1.003967 0.357613 
-3.042745 1.059952 2.079872 42.380460 -1.024811 0.313499 
-3.042964 1.059803 2.079823 42.389540 -1.014557 0.315691 
-3.043295 1.059633 2.080170 42.347890 -0.978790 0.333449 
-3.042773 1.059900 2.079839 42.395260 -1.039063 0.301196 
-3.042827 1.059976 2.079887 42.379240 -1.031494 0.301775 
-3.042760 1.059698 2.080059 42.370080 -0.971375 0.286626 
-3.042811 1.059689 2.079942 42.349530 -0.999237 0.304585 
-3.043274 1.060102 2.080032 42.395870 -0.995026 0.331224 
-3.042823 1.059790 2.080137 42.322400 -1.002838 0.293842 
-3.042614 1.059697 2.080038 42.371070 -0.985657 0.290919 
-3.042902 1.059787 2.079956 42.325010 -1.029388 0.303616 
-3.042720 1.059881 2.079997 42.377850 -0.999725 0.292591 
-3.042921 1.059777 2.079983 42.343590 -0.992737 0.308035 
-3.042684 1.059754 2.080052 42.349370 -0.991760 0.290493 
-3.043262 1.060023 2.080049 42.411460 -0.984558 0.348308 
-3.043097 1.059844 2.080260 42.419270 -0.993286 0.341263 
-3.042907 1.059854 2.080217 42.353700 -0.979492 0.309511 
-3.043020 1.059748 2.080249 42.351710 -0.985931 0.309716 
-3.042988 1.059804 2.080094 42.378480 -0.994659 0.297299 
-3.043378 1.059868 2.080219 42.409700 -1.005371 0.322878 
-3.043401 1.059957 2.080147 42.406690 -0.998688 0.317716 
-3.043713 1.059823 2.080015 42.347470 -0.995056 0.303044 
-3.043766 1.059834 2.080004 42.374620 -1.003571 0.311558 
-3.044098 1.060045 2.079799 42.382680 -1.033417 0.321191 
-3.044243 1.059648 2.079857 42.365600 -1.015900 0.324662 
-3.044249 1.059809 2.079785 42.361760 -1.010315 0.315118 
